<svg xmlns="http://www.w3.org/2000/svg" viewBox="0 0 500 500"><g id="freepik--background-simple--inject-31"><path d="M287.07,192.23c-73.72-14.48-125.39-169.08-214.65-75.9C9.08,182.43,79.48,326.81,169,302.67c54.18-14.61,45.36-15,97.59,9.52,52.92,24.88,77.9,30.8,120.6-23.54,22.1-28.12,52-88.16,20.56-119.18C368.4,130.67,332.11,201.07,287.07,192.23Z" style="fill:#2EBBF2"></path><path d="M287.07,192.23c-73.72-14.48-125.39-169.08-214.65-75.9C9.08,182.43,79.48,326.81,169,302.67c54.18-14.61,45.36-15,97.59,9.52,52.92,24.88,77.9,30.8,120.6-23.54,22.1-28.12,52-88.16,20.56-119.18C368.4,130.67,332.11,201.07,287.07,192.23Z" style="fill:#fff;opacity:0.9"></path></g><g id="freepik--Shadow--inject-31"><ellipse id="freepik--path--inject-31" cx="250" cy="416.24" rx="193.89" ry="11.32" style="fill:#f5f5f5"></ellipse></g><g id="freepik--Photo--inject-31"><polygon points="250.4 238.87 88.34 257.81 56.74 97.24 218.79 78.3 250.4 238.87" style="fill:#2EBBF2;opacity:0.2"></polygon><polygon points="240.97 231.98 94.69 249.08 66.17 104.13 212.45 87.03 240.97 231.98" style="fill:#2EBBF2;opacity:0.7000000000000001"></polygon><ellipse cx="117.13" cy="137.09" rx="19.6" ry="21.19" transform="translate(-62.88 147.45) rotate(-52.78)" style="fill:#fff;opacity:0.8"></ellipse><polygon points="240.97 231.98 174.36 183.26 153.03 212.6 132.25 197.4 94.69 249.08 129.56 244.91 129.24 245.34 240.97 231.98" style="opacity:0.2"></polygon></g><g id="freepik--Phone--inject-31"><rect x="147.83" y="285.15" width="1" height="14.04" transform="translate(-22.3 12.44) rotate(-4.47)" style="fill:#263238"></rect><rect x="149.02" y="304.31" width="1" height="6.2" transform="translate(-23.49 12.58) rotate(-4.47)" style="fill:#263238"></rect><path d="M175.25,411.21H290.34a13.37,13.37,0,0,0,13.48-14.61L282.29,121a16.13,16.13,0,0,0-15.76-14.61H151.44A13.35,13.35,0,0,0,138,121L159.5,396.6A16.13,16.13,0,0,0,175.25,411.21Z" style="fill:#263238"></path><path d="M144.52,194.84h2.22a2.38,2.38,0,0,0,2.4-2.61l-2.48-31.83a2.89,2.89,0,0,0-2.82-2.61h-2.22a2.38,2.38,0,0,0-2.4,2.61l2.48,31.83A2.88,2.88,0,0,0,144.52,194.84Z" style="fill:#263238"></path><path d="M146.34,226.43h3.51a1.79,1.79,0,0,0,1.81-2l-1.32-17a2.17,2.17,0,0,0-2.12-2H144.7a1.79,1.79,0,0,0-1.81,2l1.33,17A2.17,2.17,0,0,0,146.34,226.43Z" style="fill:#263238"></path><path d="M180.26,411.21H295.35a13.35,13.35,0,0,0,13.47-14.61L287.29,121a16.11,16.11,0,0,0-15.75-14.61H156.45A13.35,13.35,0,0,0,143,121L164.5,396.6A16.14,16.14,0,0,0,180.26,411.21Z" style="fill:#2EBBF2"></path><path d="M230.21,397.25a7.16,7.16,0,0,0,7,6.51,5.93,5.93,0,0,0,6-6.51,7.15,7.15,0,0,0-7-6.5A5.93,5.93,0,0,0,230.21,397.25Z" style="opacity:0.2"></path><polygon points="163.61 385.14 307.93 385.14 287.46 123.22 143.15 123.22 163.61 385.14" style="fill:#fff;opacity:0.8"></polygon><path d="M231.16,114.15a2.53,2.53,0,0,0-2.48-2.3,2.11,2.11,0,0,0-2.13,2.3,2.53,2.53,0,0,0,2.49,2.3A2.1,2.1,0,0,0,231.16,114.15Z" style="opacity:0.2"></path><path d="M220.73,111.85H201.62a2.11,2.11,0,0,0-2.13,2.3h0a2.55,2.55,0,0,0,2.48,2.3h19.12a2.11,2.11,0,0,0,2.12-2.3h0A2.54,2.54,0,0,0,220.73,111.85Z" style="opacity:0.2"></path><ellipse cx="214.35" cy="337.73" rx="12.9" ry="13.95" transform="translate(-177.66 258.11) rotate(-46.12)" style="fill:#fff"></ellipse><path d="M264.86,359a12.23,12.23,0,0,1-12.37,13.42A14.77,14.77,0,0,1,238,359a12.23,12.23,0,0,1,12.37-13.42A14.77,14.77,0,0,1,264.86,359Z" style="fill:#fff"></path><ellipse cx="248.12" cy="316.47" rx="12.9" ry="13.95" transform="translate(-151.97 275.95) rotate(-46.12)" style="fill:#fff"></ellipse><path d="M251.56,360.49a1.61,1.61,0,0,1-.79-.21L213.68,339a1.63,1.63,0,0,1-.83-1.29,1.37,1.37,0,0,1,.62-1.29l33.78-21.26a1.57,1.57,0,0,1,2.09.52,1.44,1.44,0,0,1-.35,2.06l-31.73,20,34.85,20a1.58,1.58,0,0,1,.68,2.06A1.37,1.37,0,0,1,251.56,360.49Z" style="fill:#fff"></path><polygon points="300.44 289.32 165 289.32 153.88 146.99 289.32 146.99 300.44 289.32" style="opacity:0.1"></polygon><polygon points="315.18 280.81 172.84 280.81 161.72 138.48 304.06 138.48 315.18 280.81" style="fill:#fff"></polygon><polygon points="307.71 273.89 179.23 273.89 169.19 145.41 297.67 145.41 307.71 273.89" style="fill:#2EBBF2"></polygon><ellipse cx="210.01" cy="179.12" rx="17.1" ry="18.49" transform="translate(-64.67 206.34) rotate(-46.12)" style="fill:#fff;opacity:0.8"></ellipse><polygon points="307.71 273.89 254.92 224.93 233.48 248.19 217 232.91 179.23 273.89 209.86 273.81 209.55 274.15 307.71 273.89" style="opacity:0.2"></polygon></g><g id="freepik--Character--inject-31"><path d="M378.5,177.31c.45,1,.78,1.87,1.11,2.8s.65,1.81.95,2.72c.61,1.81,1.13,3.64,1.63,5.47q1.47,5.49,2.44,11.06l.24,1.4.06.34.07.44a9.24,9.24,0,0,1,.1,1.16,10.67,10.67,0,0,1-.7,4,19.24,19.24,0,0,1-3.41,5.69,39.16,39.16,0,0,1-8.94,7.73l-2.68-3.3a58.41,58.41,0,0,0,6.26-8.27,14.76,14.76,0,0,0,1.76-4,3.72,3.72,0,0,0,.07-1.41l-.54-2.09c-.9-3.5-1.86-7-2.92-10.39-.52-1.71-1.08-3.41-1.63-5.1-.28-.84-.57-1.68-.87-2.5l-.87-2.36Z" style="fill:#ffb573"></path><path d="M373,218.85l2.58,5.55L372,226.47s-6.95-10.15-1.71-10.48Z" style="fill:#ffb573"></path><path d="M358.71,408.18a10.18,10.18,0,0,0,2.21-.3.22.22,0,0,0,.15-.16.2.2,0,0,0-.09-.2c-.29-.19-2.83-1.83-3.8-1.39a.67.67,0,0,0-.4.56,1.13,1.13,0,0,0,.33,1.05A2.38,2.38,0,0,0,358.71,408.18Zm1.65-.58c-1.46.29-2.56.24-3-.15a.77.77,0,0,1-.21-.71.3.3,0,0,1,.17-.25C357.85,406.26,359.32,407,360.36,407.6Z" style="fill:#2EBBF2"></path><path d="M360.87,407.88l.1,0a.21.21,0,0,0,.1-.17c0-.11,0-2.52-.92-3.32a1,1,0,0,0-.84-.27.69.69,0,0,0-.67.55c-.19,1,1.33,2.75,2.13,3.21A.18.18,0,0,0,360.87,407.88Zm-1.42-3.39a.7.7,0,0,1,.44.17,4.52,4.52,0,0,1,.77,2.64c-.79-.64-1.74-2-1.63-2.57,0-.09.07-.21.33-.24Z" style="fill:#2EBBF2"></path><path d="M360.14,148.07c-1,5-3,15,.45,18.35,0,0-1.36,5-10.6,5-10.15,0-4.85-5-4.85-5,5.54-1.32,5.4-5.43,4.43-9.3Z" style="fill:#ffb573"></path><path d="M344.56,168.05c-1.37.2-.1-2.93.47-3.26,1.31-.78,18-2.35,17.81-.59a4.65,4.65,0,0,1-1.3,2.77C360.79,167.5,356.57,166.12,344.56,168.05Z" style="fill:#2EBBF2"></path><path d="M340,137.41a.39.39,0,0,1-.32-.16,3.18,3.18,0,0,0-2.51-1.38.4.4,0,1,1,0-.79,3.93,3.93,0,0,1,3.19,1.7.4.4,0,0,1-.09.56A.39.39,0,0,1,340,137.41Z" style="fill:#263238"></path><path d="M337.74,142.18a17.91,17.91,0,0,1-2.24,4.41,2.93,2.93,0,0,0,2.43.35Z" style="fill:#ff5652"></path><path d="M338.3,141c0,.68-.31,1.24-.75,1.25s-.82-.51-.85-1.19.31-1.23.75-1.25S338.27,140.33,338.3,141Z" style="fill:#263238"></path><path d="M337.65,139.84l-1.64-.4S336.89,140.67,337.65,139.84Z" style="fill:#263238"></path><polygon points="370.61 407.69 362.24 407.69 362.89 388.29 371.27 388.29 370.61 407.69" style="fill:#ffb573"></polygon><polygon points="371.27 388.29 362.89 388.29 362.56 398.29 370.94 398.29 371.27 388.29" style="opacity:0.2"></polygon><path d="M361.57,406.72H371a.65.65,0,0,1,.67.57l1.07,7.44a1.33,1.33,0,0,1-1.34,1.49c-3.28-.05-4.86-.25-9-.25-2.54,0-6.26.27-9.78.27s-3.7-3.48-2.24-3.79c6.56-1.42,7.6-3.36,9.81-5.22A2.21,2.21,0,0,1,361.57,406.72Z" style="fill:#263238"></path><path d="M334.31,180c-1.66,4.18-3.45,8.16-5.46,12.14a103.6,103.6,0,0,1-6.72,11.7c-.67,1-1.34,1.9-2.09,2.84-.4.48-.73.91-1.18,1.42a12.71,12.71,0,0,1-1.75,1.61,12.47,12.47,0,0,1-4.11,2,14.83,14.83,0,0,1-4.1.54,23.46,23.46,0,0,1-7.3-1.25,28.79,28.79,0,0,1-3.27-1.28,28.48,28.48,0,0,1-3.14-1.63L297,204.2c3.82,1,8.1,1.72,11.51,1.23a6.89,6.89,0,0,0,3.89-1.66,4.5,4.5,0,0,0,.57-.66l.82-1.14c.55-.79,1.08-1.65,1.61-2.51,1.05-1.74,2.05-3.56,3-5.42s1.91-3.74,2.81-5.66c1.78-3.82,3.54-7.75,5.17-11.59Z" style="fill:#ffb573"></path><path d="M331,168.57c-4.16,1-9.29,12.44-9.29,12.44l9.91,12.7s10.24-14.49,8.87-18.91C339.05,170.19,336,167.34,331,168.57Z" style="fill:#263238"></path><path d="M298.88,204.8l-6.23-2-1.37,6.52s6.1,1.19,8.51-1.47Z" style="fill:#ffb573"></path><polygon points="286.87 203.6 286.87 208.26 291.28 209.37 292.64 202.85 286.87 203.6" style="fill:#ffb573"></polygon><path d="M360.9,137.79c-.18,8.31-.08,11.83-4.1,16.25-6.05,6.65-16.22,4.61-18.52-3.59-2.07-7.38-1.42-19.73,6.56-23.35A11.34,11.34,0,0,1,360.9,137.79Z" style="fill:#ffb573"></path><path d="M372.33,156.45c-2.59-3.4-2.12-7.12-1.62-11.06.56-4.44,1.18-9.44-2.63-14.63a1.4,1.4,0,0,1-.1-.16c-9.51-13.46-27.71-7.07-29.1,0-1,5.08.28,3.48,2.73,8.73s-.05,16.54-1,20.53c4.08,2.76,26.59,3.23,30.11-2.28-2.12-3.33-1.71-6.66-1-10.16-.33,3.32-.27,6.48,2,9.48a.38.38,0,0,0,.3.15.4.4,0,0,0,.23-.08A.38.38,0,0,0,372.33,156.45Z" style="fill:#263238"></path><path d="M345,141.64a6.86,6.86,0,0,1-1.9,4.17c-1.48,1.53-3,.65-3.27-1.16-.23-1.63.26-4.39,2.06-5.26S345.09,139.79,345,141.64Z" style="fill:#ffb573"></path><path d="M344,219.12s4.86,57.49,9.9,89.89c4.07,26.17,7.29,87.35,7.29,87.35h11.42s5.44-59.08,3.37-85c-5.23-65.49,3.95-77.09-6.95-92.27Z" style="fill:#2EBBF2"></path><path d="M356.76,250.15c-.48,17.2-3.72,27.85-6.28,33.59-1.34-11.22-2.57-22.93-3.6-33.26C350.39,238.78,357.13,237.2,356.76,250.15Z" style="opacity:0.2"></path><path d="M377.6,374.27a.21.21,0,0,0-.32-.17c-.34.25-3.33,2.51-3.27,3.68a.62.62,0,0,0,.32.53,1.09,1.09,0,0,0,1,.1c1.13-.45,1.88-2.76,2.23-4.1A.06.06,0,0,0,377.6,374.27Zm-3.2,3.45c0-.66,1.49-2,2.65-2.94-.53,1.8-1.21,3-1.84,3.27a.71.71,0,0,1-.67-.08.24.24,0,0,1-.14-.21Z" style="fill:#2EBBF2"></path><path d="M377.6,374.27v0a.18.18,0,0,0-.13-.15c-.09,0-2.2-.85-3.45-.29a1.48,1.48,0,0,0-.79.84c-.19.52,0,.79.18.92.79.55,3.28-.44,4.12-1.14A.17.17,0,0,0,377.6,374.27Zm-4.05.73a1.09,1.09,0,0,1,.64-.84,4.6,4.6,0,0,1,2.79.16c-1,.65-2.87,1.24-3.34.9A.21.21,0,0,1,373.55,375Z" style="fill:#2EBBF2"></path><polygon points="383.06 366.81 378.3 373.71 371.68 369.43 363.02 363.82 362.01 363.17 366.76 356.27 367.9 357 376.29 362.43 383.06 366.81" style="fill:#ffb573"></polygon><polygon points="376.29 362.43 371.68 369.43 363.02 363.82 367.9 357 376.29 362.43" style="opacity:0.2"></polygon><path d="M335,219.12s-12.53,57.14-12.53,86.55c0,26.57,45,63.16,45,63.16l6.33-9.56s-30.78-42.08-29-50.6c5.19-24.72,13.84-78,13.74-89.55Z" style="fill:#2EBBF2"></path><path d="M376.77,373.34l4.11-8.46a.66.66,0,0,1,.81-.35l7.16,2.29a1.35,1.35,0,0,1,.76,1.86c-1.49,2.92-2.35,4.26-4.16,8-1.11,2.29-3.18,7.15-4.71,10.31s-4.75,1.81-4.39.36c1.6-6.53,1-9.7.27-12.5A2.18,2.18,0,0,1,376.77,373.34Z" style="fill:#263238"></path><polygon points="367.96 371.04 376.42 359.21 372.27 355.38 363.2 368.04 367.96 371.04" style="fill:#263238"></polygon><polygon points="359.59 396.58 374.14 396.58 374.91 391.48 359.51 390.96 359.59 396.58" style="fill:#263238"></polygon><path d="M382.23,181.61l-8.41,6.7-5.05,4s-.53-1.41-1.17-3.43c-1.22-3.9-2.81-10.08-1.71-12.92,1.73-4.5,5-8.56,9.14-7.66C378.51,169.09,382.23,181.61,382.23,181.61Z" style="fill:#263238"></path><path d="M373.82,188.31l-5.05,4s-.53-1.41-1.17-3.43l3-14.85Z" style="opacity:0.2"></path><path d="M331,168.57s-4,1.4,4,50.55h34c-.57-13.84-.59-22.38,6-50.8a100.27,100.27,0,0,0-14.44-1.9,107.54,107.54,0,0,0-15.45,0C338.5,167,331,168.57,331,168.57Z" style="fill:#263238"></path><path d="M369.51,217.13l1.53,3c.12.24-.16.48-.55.48H334.81c-.3,0-.56-.15-.58-.35l-.3-3c0-.21.24-.39.58-.39H369A.6.6,0,0,1,369.51,217.13Z" style="fill:#2EBBF2"></path><path d="M369.51,217.13l1.53,3c.12.24-.16.48-.55.48H334.81c-.3,0-.56-.15-.58-.35l-.3-3c0-.21.24-.39.58-.39H369A.6.6,0,0,1,369.51,217.13Z" style="opacity:0.2"></path><path d="M364.88,221h.93c.18,0,.32-.1.31-.21l-.44-4c0-.12-.17-.21-.35-.21h-.93c-.18,0-.32.09-.31.21l.44,4C364.54,220.88,364.7,221,364.88,221Z" style="fill:#2EBBF2"></path><path d="M342.52,221h.92c.19,0,.33-.1.31-.21l-.43-4c0-.12-.17-.21-.36-.21H342c-.18,0-.32.09-.31.21l.43,4C342.18,220.88,342.34,221,342.52,221Z" style="fill:#2EBBF2"></path></g></svg>